<?xml version="1.0" encoding="UTF-8"?>
<svg width="391px" height="450px" viewBox="0 0 391 450" version="1.1" xmlns="http://www.w3.org/2000/svg" xmlns:xlink="http://www.w3.org/1999/xlink">
    <!-- Generator: Sketch 48.2 (47327) - http://www.bohemiancoding.com/sketch -->
    <title>Combined Shape</title>
    <desc>Created with Sketch.</desc>
    <defs></defs>
    <g id="q-white" stroke="none" stroke-width="1" fill="none" fill-rule="evenodd" transform="translate(-55.000000, -25.000000)">
        <path d="M381.256067,351.804989 L346.463353,316.537849 C343.359115,313.391283 342.688874,308.58 344.814939,304.70482 C354.553937,286.953543 359.423436,263.575212 359.423436,234.569825 C359.423436,149.563591 316.978433,94.8566085 250.640546,94.8566085 C184.021567,94.8566085 141.576564,149.563591 141.576564,234.569825 C141.576564,319.295511 184.021567,373.721945 250.640546,373.721945 C261.040978,373.721945 270.598131,372.319202 279.593098,369.794264 L265.194954,349.330313 C263.440092,346.836144 262.487161,343.866327 262.463194,340.816762 L262.399994,332.774994 C262.345084,325.788091 267.964574,320.079574 274.951477,320.024663 C274.976104,320.02447 275.000733,320.024348 275.025361,320.024299 L301.19664,319.971465 C308.318268,319.957089 315.108002,322.980657 319.861856,328.28336 L414.412375,433.750059 C417.971218,437.719781 419.797786,442.946124 419.486446,448.268447 L418.795003,460.088573 C418.332777,467.990284 411.81041,474.173018 403.895289,474.212429 L363.14994,474.415308 C355.548372,474.453158 348.419785,470.730049 344.107542,464.469871 L322.179993,432.637157 C300.535852,440.21197 276.219986,443.859102 250.640546,443.859102 C130.332854,443.859102 55,364.46384 55,234.569825 C55,105.798005 130.332854,25 250.640546,25 C370.667146,25 446,105.798005 446,234.569825 C446,281.219379 435.342271,320.258402 414.026813,351.686895 L414.026811,351.686894 C412.194207,354.38897 409.157927,356.026278 405.893346,356.072848 L392.148208,356.268928 C388.060919,356.327235 384.126871,354.71494 381.256067,351.804989 Z" id="Combined-Shape" fill="#FFFFFF"></path>
    </g>
</svg>